<svg id="Capa_1" data-name="Capa 1" xmlns="http://www.w3.org/2000/svg" viewBox="0 0 47 47"><defs><style>.cls-1{fill:#fff;stroke:#000;stroke-width:0.1px;}.cls-1,.cls-2{stroke-miterlimit:10;}.cls-2{fill:none;stroke:#fff;}</style></defs><title>mail</title><g id="mail"><path class="cls-1" d="M47.45,12h-28a2,2,0,0,0-2,2V32a2,2,0,0,0,2,2h28a2,2,0,0,0,2-2V14A2,2,0,0,0,47.45,12Zm-.2,1.5L33.45,27.2,19.75,13.5Zm-28.5,19V14.6l10.1,10.1L21,32.5Zm4.2,0,6.8-6.7L32,27.9a2.17,2.17,0,0,0,3,0l2.1-2,6.6,6.6Zm25.2,0h-2l-7.9-7.8,9.9-9.9Z" transform="translate(-9.95 0.5)"/></g><rect class="cls-2" x="0.5" y="0.5" width="46" height="46"/></svg>